<?xml version="1.0" encoding="UTF-8"?>
<svg version="1.1" xmlns="http://www.w3.org/2000/svg" width="339" height="340">
<path d="M0 0 C111.87 0 223.74 0 339 0 C339 112.2 339 224.4 339 340 C227.13 340 115.26 340 0 340 C0 227.8 0 115.6 0 0 Z " fill="#FDFDFD" transform="translate(0,0)"/>
<path d="M0 0 C111.87 0 223.74 0 339 0 C339 112.2 339 224.4 339 340 C227.13 340 115.26 340 0 340 C0 227.8 0 115.6 0 0 Z M117.625 20.0625 C116.86372803 20.35141113 116.10245605 20.64032227 115.31811523 20.93798828 C97.18997629 28.08043459 81.52399924 37.73685341 67.234375 50.95703125 C65.35049302 52.67953173 63.42865369 54.28116367 61.4375 55.875 C35.16767064 78.33938679 19.08716196 117.1773165 16.375 150.875 C14.31863109 179.73507403 19.23631712 208.03250725 32 234 C32.54398438 235.11632812 33.08796875 236.23265625 33.6484375 237.3828125 C40.19412364 250.13614465 48.63071243 261.25335401 58.57470703 271.5234375 C60.02196986 273.02276015 61.4463753 274.54177106 62.87109375 276.0625 C74.16005523 287.93081808 87.4324805 296.62029056 102 304 C102.68562012 304.34804688 103.37124023 304.69609375 104.07763672 305.0546875 C125.02548269 315.3901886 148.16552247 319.78462147 171.390625 319.83203125 C180.30328509 319.9498532 187.52033764 321.78789866 195.3125 326.0625 C202.54717943 329.95915765 209.04318674 332.59232045 217.42578125 330.3515625 C223.5378133 328.18128101 228.05359885 325.20152568 232 320 C233.09506492 316.71480525 233.09960608 314.26336585 233.0625 310.8125 C233.05347656 309.72582031 233.04445312 308.63914062 233.03515625 307.51953125 C233.01775391 306.27236328 233.01775391 306.27236328 233 305 C234.26457031 304.63068359 234.26457031 304.63068359 235.5546875 304.25390625 C239.35545334 302.87063433 242.68944279 301.03598758 246.125 298.9375 C246.77879639 298.54046875 247.43259277 298.1434375 248.10620117 297.734375 C258.23134003 291.48760401 267.3563368 284.17041916 276 276 C276.81082031 275.25363281 277.62164062 274.50726563 278.45703125 273.73828125 C293.80934808 259.11127072 305.55819146 239.76001584 313 220 C313.25765137 219.32388672 313.51530273 218.64777344 313.78076172 217.95117188 C317.63252977 207.69528737 320.00589468 197.67155632 321.45703125 186.81640625 C322 183 322 183 323 180 C325.83503528 132.75370751 310.9011251 92.45927036 279.828125 57.1171875 C276.46973418 53.37163042 272.98351042 50.0769184 269 47 C268.00484375 46.195625 267.0096875 45.39125 265.984375 44.5625 C241.14536961 25.02417865 209.61758192 13.05591888 177.91796875 12.76171875 C176.63748405 12.74961113 176.63748405 12.74961113 175.33113098 12.73725891 C173.52847267 12.72349926 171.72578919 12.71274124 169.9230957 12.70483398 C168.1189789 12.69340228 166.31489351 12.6730932 164.51098633 12.64331055 C148.35499452 12.37763094 132.79680659 14.1789921 117.625 20.0625 Z " fill="#FEFEFE" transform="translate(0,0)"/>
<path d="M0 0 C5.4656364 4.26979918 10.64500921 8.80300615 15.6875 13.5625 C16.70070313 14.49642578 16.70070313 14.49642578 17.734375 15.44921875 C34.00024219 30.96685605 46.36973445 52.09267078 52.6875 73.5625 C52.88649902 74.23619629 53.08549805 74.90989258 53.29052734 75.60400391 C62.82329569 109.72990928 57.12900764 149.65074737 40.32788086 180.47314453 C33.85542056 191.79412087 26.43918028 202.8251789 16.6875 211.5625 C15.511875 212.7690625 15.511875 212.7690625 14.3125 214 C13.44625 214.845625 12.58 215.69125 11.6875 216.5625 C11.01589844 217.21863281 10.34429687 217.87476563 9.65234375 218.55078125 C-0.50246685 228.11116391 -13.1959257 236.61350231 -26.3125 241.5625 C-29.73178888 241.22530369 -31.68297503 239.72246694 -34.3125 237.5625 C-33.67827192 232.95377596 -32.47417709 228.8240146 -30.9375 224.4375 C-26.22450981 210.68617797 -24.18365976 198.14362702 -24.06640625 183.6328125 C-24.05087327 182.27431472 -24.03466154 180.91582455 -24.01780701 179.55734253 C-23.94755296 173.82038146 -23.88707671 168.08335222 -23.83569336 162.34619141 C-23.80368205 158.82370668 -23.76236031 155.30142687 -23.71549797 151.77910995 C-23.69196443 149.80464411 -23.67881047 147.8300632 -23.66590881 145.85549927 C-23.41569594 127.54264266 -23.41569594 127.54264266 -18.3125 121.5625 C-15.69567873 119.86092902 -12.93730552 118.53356076 -10.125 117.1875 C3.02713432 110.45747809 8.2019874 103.68855573 14.66650391 90.57324219 C15.99490915 87.95709069 17.49806382 85.4571209 19 82.9375 C23.97098295 73.85403256 27.73831304 61.89806268 25.203125 51.59375 C18.95545637 35.52831639 -6.00838897 25.67320279 -20.63671875 19.12109375 C-44.7611523 8.89192373 -72.89260893 2.88742476 -98.3125 12.5625 C-99.06144531 12.83578125 -99.81039062 13.1090625 -100.58203125 13.390625 C-104.50802104 14.83292838 -104.50802104 14.83292838 -108.3125 16.5625 C-110.18693048 16.7758967 -112.06204142 16.98333615 -113.9375 17.1875 C-120.27751929 18.20098866 -124.34474986 20.48581456 -128.3125 25.5625 C-130.42291907 29.59833387 -130.44719216 32.9306434 -130.4375 37.4375 C-130.6904745 43.90283911 -132.32033118 48.26476016 -135.67431641 53.88256836 C-139.31645328 60.14777001 -141.9138299 66.76090028 -144.53311157 73.49606323 C-155.50113797 101.69667614 -169.40246623 124.09353624 -191.98022461 144.55004883 C-196.6718395 148.83968335 -200.68250511 153.31985157 -204.578125 158.35546875 C-206.0704354 160.25446735 -207.48435628 161.98598281 -209.3125 163.5625 C-209.9725 163.5625 -210.6325 163.5625 -211.3125 163.5625 C-214.49947103 157.12075005 -216.11146041 150.50475561 -217.5 143.5 C-217.66661133 142.66178711 -217.83322266 141.82357422 -218.00488281 140.95996094 C-221.75755494 121.27191722 -222.32875674 100.04121124 -217.3125 80.5625 C-217.04566406 79.35464844 -216.77882812 78.14679688 -216.50390625 76.90234375 C-210.65008534 52.16019403 -197.01052629 31.0995047 -179.3125 13.1875 C-178.20974731 12.06384033 -178.20974731 12.06384033 -177.0847168 10.91748047 C-131.37374283 -34.40461437 -51.16162504 -37.42739745 0 0 Z " fill="#FDFDFD" transform="translate(251.3125,52.4375)"/>
<path d="M0 0 C2.70742479 0.01066488 5.4141781 0.00008706 8.12158203 -0.01269531 C22.07258809 -0.02570328 35.4615507 0.93671499 48.91455078 4.94824219 C50.25030151 5.34124512 50.25030151 5.34124512 51.61303711 5.7421875 C71.62580941 11.8204728 90.46454871 21.80158504 106.47705078 35.26074219 C107.36908203 36.00066406 108.26111328 36.74058594 109.18017578 37.50292969 C115.38680585 42.85281634 120.47671438 48.78764356 125.47705078 55.26074219 C126.21826172 56.18628906 126.95947266 57.11183594 127.72314453 58.06542969 C149.26200804 85.61427071 159.50547718 118.38611264 159.72705078 153.07324219 C159.74131104 154.91595703 159.74131104 154.91595703 159.75585938 156.79589844 C159.72884696 164.19129684 159.00496679 171.03562618 157.47705078 178.26074219 C157.30044922 179.41960937 157.12384766 180.57847656 156.94189453 181.77246094 C151.90374035 212.11334498 135.56288664 239.39394944 114.47705078 261.26074219 C113.76162109 262.03933594 113.04619141 262.81792969 112.30908203 263.62011719 C103.35110453 273.09910276 92.45523288 280.27024385 81.28955078 286.88574219 C80.21157227 287.52467407 80.21157227 287.52467407 79.11181641 288.17651367 C75.89259174 290.03614429 73.13806808 291.47469284 69.47705078 292.26074219 C69.51185547 293.06898438 69.54666016 293.87722656 69.58251953 294.70996094 C69.623125 296.31291016 69.623125 296.31291016 69.66455078 297.94824219 C69.69935547 299.00398438 69.73416016 300.05972656 69.77001953 301.14746094 C69.30630462 306.07520468 66.95494034 309.19920399 63.28955078 312.38574219 C58.60270765 316.214153 54.03252384 317.98196331 48.03955078 318.63574219 C40.13705013 317.80390001 33.65544189 314.4732706 26.76220703 310.66308594 C19.62839291 307.61785494 12.56155403 307.10235513 4.87768555 307.08666992 C-33.69009404 306.92229736 -70.65059769 291.74152257 -98.52294922 265.26074219 C-99.02584473 264.79039551 -99.52874023 264.32004883 -100.046875 263.83544922 C-120.10308172 244.98737421 -133.6586136 221.61300021 -141.52294922 195.26074219 C-141.77101318 194.45008301 -142.01907715 193.63942383 -142.2746582 192.80419922 C-144.34192028 185.71589408 -145.41657875 178.71711428 -146.21044922 171.38574219 C-146.34 170.30421875 -146.46955078 169.22269531 -146.60302734 168.10839844 C-151.23791289 126.95846221 -138.66066028 87.55400069 -113.03466797 55.33496094 C-107.04220252 48.00048145 -100.84628922 41.27388011 -93.52294922 35.26074219 C-92.78689453 34.63683594 -92.05083984 34.01292969 -91.29248047 33.37011719 C-73.01585899 18.22407524 -51.58586383 7.77413094 -28.52294922 2.26074219 C-27.75789063 2.06641602 -26.99283203 1.87208984 -26.20458984 1.671875 C-17.55370364 -0.23591216 -8.81208218 -0.04121499 0 0 Z M-23.52294922 17.26074219 C-25.0181159 17.60850239 -26.51428034 17.9519909 -28.01123047 18.29199219 C-61.6918027 26.19861748 -92.88856861 46.81511296 -111.41552734 76.43017578 C-131.25068171 109.21765097 -137.93390565 147.60241918 -129.52294922 185.26074219 C-127.97118154 191.32406246 -126.33025501 197.6461306 -123.52294922 203.26074219 C-119.84624338 201.75022196 -117.8042046 199.61188069 -115.21044922 196.63574219 C-114.01935547 195.28416016 -114.01935547 195.28416016 -112.80419922 193.90527344 C-111.46122441 192.34843449 -110.12487168 190.7857633 -108.80419922 189.20996094 C-105.38820251 185.16602365 -101.72477875 181.58938283 -97.77294922 178.07324219 C-76.88726054 159.33630037 -65.39927412 135.6622205 -55.35400391 109.97045898 C-52.79496885 103.48430488 -50.10958303 97.3414383 -46.66748047 91.26855469 C-43.89418686 86.28369093 -42.6989172 83.00519983 -42.77294922 77.32324219 C-42.79900262 71.23325906 -41.86818922 67.3180467 -38.12060547 62.43261719 C-33.6169015 58.26124761 -29.7187635 57.54872024 -23.71826172 56.81933594 C-19.2218621 56.03329053 -15.35593819 54.26588648 -11.19873047 52.43261719 C10.55063149 42.90734918 39.00392083 47.57136391 60.28051758 55.79614258 C75.25132972 61.84961081 89.65005281 69.41110579 102.47705078 79.26074219 C103.28787109 79.87691406 104.09869141 80.49308594 104.93408203 81.12792969 C109.83753603 85.1037032 112.74542614 88.72281722 113.78564453 95.17480469 C114.42746149 105.56056997 110.4765888 116.45043408 105.23876953 125.23730469 C103.84675288 127.62626452 102.59204021 129.99559478 101.37158203 132.47167969 C96.32771423 142.64861906 92.24748485 149.14704513 82.07861328 154.67480469 C81.27480225 155.11187744 80.47099121 155.5489502 79.64282227 155.99926758 C78.01857624 156.86699354 76.38275797 157.71347079 74.73510742 158.53588867 C69.88884827 161.04946604 67.24613048 162.83149759 65.47705078 168.26074219 C64.14642719 175.12038707 64.30606878 182.01323692 64.26611328 188.97949219 C64.25311621 190.32361644 64.23929656 191.66773297 64.22470093 193.01184082 C64.16365748 198.68262792 64.10937766 204.35339289 64.07568359 210.02441406 C64.05444317 213.50809516 64.01891345 216.99140404 63.97492599 220.47486877 C63.95432568 222.41248549 63.94877136 224.35024414 63.9437561 226.28796387 C63.7816301 238.20348596 61.67488743 249.56914545 57.91455078 260.88574219 C57.60227539 261.86607422 57.60227539 261.86607422 57.28369141 262.86621094 C56.38869161 265.64379652 55.43524085 268.36153649 54.31689453 271.05761719 C53.22542471 273.92082173 53.42318592 275.40025185 54.47705078 278.26074219 C56.07321083 280.27039993 56.07321083 280.27039993 58.47705078 281.26074219 C64.04343853 280.92792379 68.22648818 278.57073233 72.97705078 275.88574219 C73.76442627 275.44456055 74.55180176 275.00337891 75.36303711 274.54882812 C83.00531849 270.15090419 89.75194213 264.93392877 96.47705078 259.26074219 C97.55212891 258.39642578 97.55212891 258.39642578 98.64892578 257.51464844 C103.11550879 253.86825656 106.79864086 249.68757317 110.47705078 245.26074219 C111.09322266 244.54402344 111.70939453 243.82730469 112.34423828 243.08886719 C138.74120099 211.49732146 147.09234958 173.6297113 144.47705078 133.26074219 C140.94290046 102.15492473 125.56038151 76.66178108 104.47705078 54.26074219 C103.87892578 53.59816406 103.28080078 52.93558594 102.66455078 52.25292969 C79.93087377 28.04940287 44.01683558 15.27604219 11.41455078 13.85058594 C-0.59293169 13.58110781 -11.9010853 14.11764268 -23.52294922 17.26074219 Z M-4.52294922 62.26074219 C-4.47074219 63.50791016 -4.47074219 63.50791016 -4.41748047 64.78027344 C-4.39041016 65.86695312 -4.36333984 66.95363281 -4.33544922 68.07324219 C-4.28324219 69.69166016 -4.28324219 69.69166016 -4.22998047 71.34277344 C-4.52294922 74.26074219 -4.52294922 74.26074219 -5.89013672 76.13574219 C-7.52294922 77.26074219 -7.52294922 77.26074219 -9.83544922 77.44824219 C-12.95325305 76.07060793 -13.51022884 74.99559082 -15.33544922 72.19824219 C-17.38742754 69.19612896 -17.38742754 69.19612896 -20.50732422 67.55761719 C-24.48368669 67.34833495 -26.26314505 68.0804699 -29.58544922 70.38574219 C-31.78432522 73.08913991 -31.78432522 73.08913991 -31.58544922 76.19824219 C-30.08771741 80.51523386 -27.76982786 83.83573803 -24.77294922 87.26074219 C-23.070284 89.98500654 -23.30849532 92.11541828 -23.52294922 95.26074219 C-26.33544922 95.88574219 -26.33544922 95.88574219 -29.52294922 96.26074219 C-31.00794922 95.27074219 -31.00794922 95.27074219 -32.52294922 94.26074219 C-33.51294922 94.26074219 -34.50294922 94.26074219 -35.52294922 94.26074219 C-40.68253845 104.72324257 -45.42382556 115.29856025 -49.81195068 126.1078186 C-60.36016286 152.05801866 -73.83346654 170.78571886 -93.68774414 190.33666992 C-107.66741974 202.75969364 -107.66741974 202.75969364 -115.93701172 218.85839844 C-115.33468485 223.80770694 -112.85459926 226.78130185 -109.89794922 230.69824219 C-109.314729 231.48521484 -108.73150879 232.2721875 -108.13061523 233.08300781 C-90.66486849 256.21225067 -64.6797349 279.49125081 -35.52294922 286.26074219 C-34.53294922 285.93074219 -33.54294922 285.60074219 -32.52294922 285.26074219 C-32.99603516 284.82246094 -33.46912109 284.38417969 -33.95654297 283.93261719 C-49.48250311 269.04222266 -59.97925731 250.54492118 -61.50732422 228.94824219 C-61.52294922 226.26074219 -61.52294922 226.26074219 -60.52294922 224.26074219 C-58.87294922 224.26074219 -57.22294922 224.26074219 -55.52294922 224.26074219 C-53.44846446 228.17727644 -51.97389854 231.85961548 -50.83544922 236.13574219 C-44.6132601 256.78209697 -31.95543886 273.98323884 -12.89379883 284.5144043 C-2.82199837 289.85495792 7.04455142 292.87306028 18.23535156 294.7421875 C26.48318266 296.18848183 33.41614345 299.60264362 40.75048828 303.52636719 C42.62445121 304.45644476 42.62445121 304.45644476 45.47705078 304.26074219 C45.47705078 302.28074219 45.47705078 300.30074219 45.47705078 298.26074219 C47.72705078 297.94824219 47.72705078 297.94824219 50.47705078 298.26074219 C52.78955078 300.76074219 52.78955078 300.76074219 54.47705078 303.26074219 C55.46705078 302.60074219 56.45705078 301.94074219 57.47705078 301.26074219 C56.96150714 296.74973534 55.55460902 294.57173751 52.47705078 291.26074219 C49.53172295 289.02922061 46.44652216 287.02813402 43.35205078 285.01074219 C24.47796854 272.36211459 12.57416706 257.58556796 6.47705078 235.26074219 C5.76872863 231.64042896 5.3393346 228.19843509 5.35205078 224.51074219 C5.34947266 223.75277344 5.34689453 222.99480469 5.34423828 222.21386719 C5.47705078 220.26074219 5.47705078 220.26074219 6.47705078 218.26074219 C8.12705078 218.26074219 9.77705078 218.26074219 11.47705078 218.26074219 C11.71302979 218.98551758 11.94900879 219.71029297 12.19213867 220.45703125 C21.22162583 249.50248086 21.22162583 249.50248086 42.47705078 270.26074219 C43.27043628 268.21974284 44.06168108 266.17791129 44.85205078 264.13574219 C45.29291016 262.99878906 45.73376953 261.86183594 46.18798828 260.69042969 C53.15390223 242.15687681 52.86230206 223.70441259 52.66455078 204.13574219 C52.64946854 201.51986452 52.63578643 198.90397839 52.62353516 196.28808594 C52.59082952 189.9454501 52.540914 183.60313693 52.47705078 177.26074219 C51.52926758 178.02515625 50.58148438 178.78957031 49.60498047 179.57714844 C49.07185242 180.00713135 48.53872437 180.43711426 47.98944092 180.88012695 C45.64776883 183.01776861 44.259083 185.50589526 42.72705078 188.26074219 C42.15470703 189.27136719 41.58236328 190.28199219 40.99267578 191.32324219 C39.43729932 194.18943339 39.43729932 194.18943339 38.43798828 197.08496094 C38.12087891 197.80296875 37.80376953 198.52097656 37.47705078 199.26074219 C34.85205078 200.07324219 34.85205078 200.07324219 32.47705078 200.26074219 C31.39825468 187.96246667 36.58285885 176.22333503 43.47705078 166.26074219 C44.05455078 165.37386719 44.63205078 164.48699219 45.22705078 163.57324219 C51.59241972 157.03105744 59.52939884 153.12026242 67.63305664 149.18041992 C74.61824203 145.76238585 80.74879589 142.56508204 85.47705078 136.26074219 C80.19705078 135.93074219 74.91705078 135.60074219 69.47705078 135.26074219 C69.47705078 133.61074219 69.47705078 131.96074219 69.47705078 130.26074219 C71.08121745 129.67740885 72.68538411 129.09407552 74.28955078 128.51074219 C75.79001953 127.95966797 75.79001953 127.95966797 77.32080078 127.39746094 C79.3532079 126.66549253 81.39457534 125.95771763 83.44580078 125.28027344 C89.89918944 123.10845995 95.01683645 121.06289161 98.85205078 115.13574219 C99.63516466 113.11580446 99.63516466 113.11580446 99.47705078 110.26074219 C97.51519662 108.54933749 95.51402695 106.88200893 93.47705078 105.26074219 C91.76204334 101.8307273 92.07504098 98.01953385 92.47705078 94.26074219 C93.97705078 91.82324219 93.97705078 91.82324219 95.47705078 90.26074219 C95.47705078 89.60074219 95.47705078 88.94074219 95.47705078 88.26074219 C93.52777159 86.79955509 91.59894744 85.48932654 89.53955078 84.19824219 C88.60260376 83.60595825 88.60260376 83.60595825 87.64672852 83.00170898 C71.26786347 72.81207389 54.58950439 64.69308205 35.47705078 61.26074219 C34.70530518 61.08800781 33.93355957 60.91527344 33.13842773 60.73730469 C28.23100087 59.8585507 23.2618158 60.07614147 18.28955078 60.07324219 C17.20351562 60.06099609 16.11748047 60.04875 14.99853516 60.03613281 C8.2477064 60.02396916 2.03318752 60.63437798 -4.52294922 62.26074219 Z " fill="#121212" transform="translate(163.52294921875,12.7392578125)"/>
<path d="M0 0 C3.0220794 1.74450506 5.41651082 3.83302164 7 7 C7.58029015 14.07953977 7.58029015 14.07953977 5.1875 17.875 C2.1059411 20.86851436 0.52008147 21.94031852 -3.8125 22.4375 C-7.08704488 22.36500085 -8.88144761 21.73728115 -11.4375 19.6875 C-14.46303377 16.51437922 -14.91256409 14.94430783 -15.3125 10.625 C-14.94638946 6.37811768 -13.97193191 4.97193191 -11 2 C-7.3112362 -0.45917586 -4.2815571 -0.81591937 0 0 Z " fill="#151515" transform="translate(174,89)"/>
</svg>
